<?xml version="1.0" encoding="UTF-8"?>
<svg xmlns="http://www.w3.org/2000/svg" xmlns:xlink="http://www.w3.org/1999/xlink" width="30pt" height="30pt" viewBox="0 0 30 30" version="1.1">
<g id="surface1">
<path style=" stroke:none;fill-rule:nonzero;fill:rgb(92.54902%,92.54902%,92.54902%);fill-opacity:1;" d="M 12.960938 2.398438 C 12.960938 1.339844 12.101562 0.480469 11.039062 0.480469 C 9.980469 0.480469 9.121094 1.339844 9.121094 2.398438 C 9.121094 2.421875 9.125 2.445312 9.125 2.46875 C 9.097656 2.472656 9.074219 2.484375 9.042969 2.492188 C 8.695312 2.140625 8.214844 1.921875 7.679688 1.921875 C 6.621094 1.921875 5.757812 2.78125 5.757812 3.839844 C 5.757812 3.9375 5.777344 4.03125 5.789062 4.121094 C 5.5 3.945312 5.164062 3.839844 4.800781 3.839844 C 3.738281 3.839844 2.882812 4.699219 2.882812 5.757812 C 2.882812 6 2.929688 6.222656 3.007812 6.4375 C 2.367188 6.746094 1.921875 7.398438 1.921875 8.160156 C 1.921875 9.222656 2.78125 10.078125 3.839844 10.078125 L 5.28125 10.078125 C 6.117188 10.078125 6.824219 9.539062 7.085938 8.792969 C 7.390625 9 7.761719 9.121094 8.160156 9.121094 C 9.222656 9.121094 10.078125 8.261719 10.078125 7.199219 C 10.078125 6.839844 9.976562 6.507812 9.804688 6.21875 C 10.769531 6.117188 11.519531 5.3125 11.519531 4.320312 C 11.519531 4.296875 11.515625 4.277344 11.515625 4.253906 C 12.34375 4.042969 12.960938 3.296875 12.960938 2.398438 Z M 12.960938 2.398438 "/>
<path style=" stroke:none;fill-rule:nonzero;fill:rgb(68.627451%,72.156863%,78.823529%);fill-opacity:1;" d="M 17.28125 10.078125 L 13.921875 10.078125 L 13.921875 29.28125 L 29.28125 29.28125 L 29.28125 12.480469 Z M 17.28125 10.078125 "/>
<path style=" stroke:none;fill-rule:nonzero;fill:rgb(54.901961%,58.431373%,64.313725%);fill-opacity:1;" d="M 13.921875 13.921875 L 29.28125 13.921875 L 29.28125 15.359375 L 13.921875 15.359375 Z M 13.921875 13.921875 "/>
<path style=" stroke:none;fill-rule:nonzero;fill:rgb(54.901961%,58.431373%,64.313725%);fill-opacity:1;" d="M 21.121094 29.28125 L 18.722656 29.28125 L 18.722656 16.320312 L 20.640625 16.320312 C 20.90625 16.320312 21.121094 16.535156 21.121094 16.800781 Z M 21.121094 29.28125 "/>
<path style=" stroke:none;fill-rule:nonzero;fill:rgb(92.54902%,92.54902%,92.54902%);fill-opacity:1;" d="M 0.480469 16.800781 L 19.683594 16.800781 L 19.683594 29.28125 L 0.480469 29.28125 Z M 0.480469 16.800781 "/>
<path style=" stroke:none;fill-rule:nonzero;fill:rgb(99.607843%,65.882353%,18.431373%);fill-opacity:1;" d="M 0.480469 16.800781 L 19.683594 16.800781 L 19.683594 18.722656 L 0.480469 18.722656 Z M 0.480469 16.800781 "/>
<path style=" stroke:none;fill-rule:nonzero;fill:rgb(71.372549%,75.686275%,80.784314%);fill-opacity:1;" d="M 0.480469 27.839844 L 19.683594 27.839844 L 19.683594 29.28125 L 0.480469 29.28125 Z M 0.480469 27.839844 "/>
<path style=" stroke:none;fill-rule:nonzero;fill:rgb(92.54902%,92.54902%,92.54902%);fill-opacity:1;" d="M 11.519531 12.960938 L 8.640625 12.960938 L 8.160156 16.800781 L 12 16.800781 Z M 11.519531 12.960938 "/>
<path style=" stroke:none;fill-rule:nonzero;fill:rgb(99.607843%,65.882353%,18.431373%);fill-opacity:1;" d="M 8.339844 15.359375 L 11.820312 15.359375 L 11.699219 14.402344 L 8.460938 14.402344 Z M 8.339844 15.359375 "/>
<path style=" stroke:none;fill-rule:nonzero;fill:rgb(92.54902%,92.54902%,92.54902%);fill-opacity:1;" d="M 2.398438 10.078125 L 1.4375 16.800781 L 6.242188 16.800781 L 5.28125 10.078125 Z M 2.398438 10.078125 "/>
<path style=" stroke:none;fill-rule:nonzero;fill:rgb(99.607843%,65.882353%,18.431373%);fill-opacity:1;" d="M 2.058594 12.480469 L 5.621094 12.480469 L 5.488281 11.519531 L 2.195312 11.519531 Z M 2.058594 12.480469 "/>
<path style=" stroke:none;fill-rule:nonzero;fill:rgb(71.372549%,75.686275%,80.784314%);fill-opacity:1;" d="M 1.4375 16.800781 L 6.242188 16.800781 L 6.035156 15.359375 L 1.644531 15.359375 Z M 1.4375 16.800781 "/>
<path style=" stroke:none;fill-rule:nonzero;fill:rgb(71.372549%,75.686275%,80.784314%);fill-opacity:1;" d="M 8.160156 16.800781 L 12 16.800781 L 11.820312 15.359375 L 8.339844 15.359375 Z M 8.160156 16.800781 "/>
<path style=" stroke:none;fill-rule:nonzero;fill:rgb(22.352941%,76.470588%,98.823529%);fill-opacity:1;" d="M 2.398438 20.640625 L 4.320312 20.640625 L 4.320312 22.5625 L 2.398438 22.5625 Z M 2.398438 20.640625 "/>
<path style=" stroke:none;fill-rule:nonzero;fill:rgb(22.352941%,76.470588%,98.823529%);fill-opacity:1;" d="M 6.242188 20.640625 L 8.160156 20.640625 L 8.160156 22.5625 L 6.242188 22.5625 Z M 6.242188 20.640625 "/>
<path style=" stroke:none;fill-rule:nonzero;fill:rgb(22.352941%,76.470588%,98.823529%);fill-opacity:1;" d="M 2.398438 24.480469 L 4.320312 24.480469 L 4.320312 26.402344 L 2.398438 26.402344 Z M 2.398438 24.480469 "/>
<path style=" stroke:none;fill-rule:nonzero;fill:rgb(22.352941%,76.470588%,98.823529%);fill-opacity:1;" d="M 6.242188 24.480469 L 8.160156 24.480469 L 8.160156 26.402344 L 6.242188 26.402344 Z M 6.242188 24.480469 "/>
<path style=" stroke:none;fill-rule:nonzero;fill:rgb(22.352941%,76.470588%,98.823529%);fill-opacity:1;" d="M 12 20.640625 L 13.921875 20.640625 L 13.921875 22.5625 L 12 22.5625 Z M 12 20.640625 "/>
<path style=" stroke:none;fill-rule:nonzero;fill:rgb(22.352941%,76.470588%,98.823529%);fill-opacity:1;" d="M 15.839844 20.640625 L 17.761719 20.640625 L 17.761719 22.5625 L 15.839844 22.5625 Z M 15.839844 20.640625 "/>
<path style=" stroke:none;fill-rule:nonzero;fill:rgb(22.352941%,76.470588%,98.823529%);fill-opacity:1;" d="M 12 24.480469 L 13.921875 24.480469 L 13.921875 26.402344 L 12 26.402344 Z M 12 24.480469 "/>
<path style=" stroke:none;fill-rule:nonzero;fill:rgb(22.352941%,76.470588%,98.823529%);fill-opacity:1;" d="M 15.839844 24.480469 L 17.761719 24.480469 L 17.761719 26.402344 L 15.839844 26.402344 Z M 15.839844 24.480469 "/>
<path style=" stroke:none;fill-rule:nonzero;fill:rgb(0%,0%,0%);fill-opacity:1;" d="M 17.375 9.609375 L 13.441406 9.601562 L 13.441406 16.320312 L 12.425781 16.320312 L 11.945312 12.480469 L 8.21875 12.480469 L 7.734375 16.320312 L 6.65625 16.320312 L 5.824219 10.492188 C 6.433594 10.347656 6.964844 9.972656 7.300781 9.441406 C 7.574219 9.546875 7.863281 9.601562 8.160156 9.601562 C 9.484375 9.601562 10.5625 8.523438 10.5625 7.199219 C 10.5625 6.980469 10.527344 6.761719 10.46875 6.550781 C 11.363281 6.203125 12 5.335938 12 4.320312 C 12 3.898438 11.890625 3.484375 11.679688 3.121094 L 10.847656 3.601562 C 10.976562 3.816406 11.039062 4.066406 11.039062 4.320312 C 11.039062 5.117188 10.394531 5.757812 9.601562 5.757812 C 9.347656 5.757812 9.097656 5.695312 8.882812 5.570312 L 8.402344 6.398438 C 8.734375 6.59375 9.117188 6.699219 9.503906 6.714844 C 9.5625 6.871094 9.601562 7.035156 9.601562 7.199219 C 9.601562 7.992188 8.953125 8.640625 8.160156 8.640625 C 7.871094 8.640625 7.59375 8.554688 7.355469 8.394531 L 6.839844 8.046875 L 6.632812 8.632812 C 6.429688 9.210938 5.886719 9.601562 5.28125 9.601562 L 3.839844 9.601562 C 3.046875 9.601562 2.398438 8.953125 2.398438 8.160156 C 2.398438 7.367188 3.046875 6.71875 3.839844 6.71875 L 3.839844 5.757812 C 3.679688 5.757812 3.519531 5.777344 3.367188 5.808594 C 3.363281 5.792969 3.359375 5.777344 3.359375 5.757812 C 3.359375 4.964844 4.007812 4.320312 4.800781 4.320312 C 5.058594 4.320312 5.308594 4.390625 5.539062 4.535156 L 6.414062 5.050781 L 6.261719 4.042969 C 6.253906 3.972656 6.242188 3.910156 6.242188 3.839844 C 6.242188 3.046875 6.886719 2.398438 7.679688 2.398438 C 8.476562 2.398438 9.121094 3.046875 9.121094 3.839844 L 10.078125 3.839844 C 10.078125 3.296875 9.894531 2.800781 9.589844 2.398438 L 9.601562 2.398438 C 9.601562 1.605469 10.246094 0.960938 11.039062 0.960938 C 11.390625 0.960938 11.730469 1.089844 11.992188 1.320312 L 12.628906 0.601562 C 12.191406 0.214844 11.625 0 11.039062 0 C 9.960938 0 9.054688 0.722656 8.753906 1.707031 C 8.429688 1.542969 8.066406 1.4375 7.679688 1.4375 C 6.5 1.4375 5.515625 2.296875 5.316406 3.417969 C 5.148438 3.378906 4.972656 3.359375 4.800781 3.359375 C 3.476562 3.359375 2.398438 4.4375 2.398438 5.757812 C 2.398438 5.914062 2.421875 6.0625 2.449219 6.210938 C 1.839844 6.648438 1.4375 7.355469 1.4375 8.160156 C 1.4375 8.730469 1.644531 9.242188 1.976562 9.652344 L 1.023438 16.320312 L 0 16.320312 L 0 29.761719 L 29.761719 29.761719 L 29.761719 12.085938 Z M 17.234375 10.5625 L 28.800781 12.875 L 28.800781 13.441406 L 14.402344 13.441406 L 14.402344 10.5625 Z M 25.921875 26.882812 L 23.042969 26.882812 L 23.042969 25.921875 L 25.921875 25.921875 Z M 25.921875 24.960938 L 23.042969 24.960938 L 23.042969 24.003906 L 25.921875 24.003906 Z M 25.921875 23.042969 L 23.042969 23.042969 L 23.042969 22.082031 L 25.921875 22.082031 Z M 25.921875 21.121094 L 23.042969 21.121094 L 23.042969 20.160156 L 25.921875 20.160156 Z M 25.921875 19.199219 L 23.042969 19.199219 L 23.042969 18.242188 L 25.921875 18.242188 Z M 25.921875 17.28125 L 23.042969 17.28125 L 23.042969 16.320312 L 25.921875 16.320312 Z M 23.042969 27.839844 L 25.921875 27.839844 L 25.921875 28.800781 L 23.042969 28.800781 Z M 25.921875 15.359375 L 23.042969 15.359375 L 23.042969 14.402344 L 25.921875 14.402344 Z M 19.199219 18.242188 L 10.5625 18.242188 L 10.5625 17.28125 L 19.199219 17.28125 Z M 9.0625 13.441406 L 11.097656 13.441406 L 11.457031 16.320312 L 8.707031 16.320312 Z M 2.816406 10.5625 L 4.863281 10.5625 L 5.6875 16.320312 L 1.992188 16.320312 Z M 9.601562 17.28125 L 9.601562 18.242188 L 0.960938 18.242188 L 0.960938 17.28125 Z M 0.960938 28.800781 L 0.960938 19.199219 L 9.601562 19.199219 L 9.601562 28.800781 Z M 10.5625 28.800781 L 10.5625 19.199219 L 19.199219 19.199219 L 19.199219 28.800781 Z M 14.402344 16.320312 L 14.402344 14.402344 L 22.082031 14.402344 L 22.082031 28.800781 L 20.160156 28.800781 L 20.160156 16.320312 Z M 26.882812 28.800781 L 26.882812 14.402344 L 28.800781 14.402344 L 28.800781 28.800781 Z M 26.882812 28.800781 "/>
<path style=" stroke:none;fill-rule:nonzero;fill:rgb(0%,0%,0%);fill-opacity:1;" d="M 1.921875 23.042969 L 4.800781 23.042969 L 4.800781 20.160156 L 1.921875 20.160156 Z M 2.882812 21.121094 L 3.839844 21.121094 L 3.839844 22.082031 L 2.882812 22.082031 Z M 2.882812 21.121094 "/>
<path style=" stroke:none;fill-rule:nonzero;fill:rgb(0%,0%,0%);fill-opacity:1;" d="M 5.757812 23.042969 L 8.640625 23.042969 L 8.640625 20.160156 L 5.757812 20.160156 Z M 6.71875 21.121094 L 7.679688 21.121094 L 7.679688 22.082031 L 6.71875 22.082031 Z M 6.71875 21.121094 "/>
<path style=" stroke:none;fill-rule:nonzero;fill:rgb(0%,0%,0%);fill-opacity:1;" d="M 1.921875 26.882812 L 4.800781 26.882812 L 4.800781 24.003906 L 1.921875 24.003906 Z M 2.882812 24.960938 L 3.839844 24.960938 L 3.839844 25.921875 L 2.882812 25.921875 Z M 2.882812 24.960938 "/>
<path style=" stroke:none;fill-rule:nonzero;fill:rgb(0%,0%,0%);fill-opacity:1;" d="M 5.757812 26.882812 L 8.640625 26.882812 L 8.640625 24.003906 L 5.757812 24.003906 Z M 6.71875 24.960938 L 7.679688 24.960938 L 7.679688 25.921875 L 6.71875 25.921875 Z M 6.71875 24.960938 "/>
<path style=" stroke:none;fill-rule:nonzero;fill:rgb(0%,0%,0%);fill-opacity:1;" d="M 11.519531 23.042969 L 14.402344 23.042969 L 14.402344 20.160156 L 11.519531 20.160156 Z M 12.480469 21.121094 L 13.441406 21.121094 L 13.441406 22.082031 L 12.480469 22.082031 Z M 12.480469 21.121094 "/>
<path style=" stroke:none;fill-rule:nonzero;fill:rgb(0%,0%,0%);fill-opacity:1;" d="M 15.359375 23.042969 L 18.242188 23.042969 L 18.242188 20.160156 L 15.359375 20.160156 Z M 16.320312 21.121094 L 17.28125 21.121094 L 17.28125 22.082031 L 16.320312 22.082031 Z M 16.320312 21.121094 "/>
<path style=" stroke:none;fill-rule:nonzero;fill:rgb(0%,0%,0%);fill-opacity:1;" d="M 11.519531 26.882812 L 14.402344 26.882812 L 14.402344 24.003906 L 11.519531 24.003906 Z M 12.480469 24.960938 L 13.441406 24.960938 L 13.441406 25.921875 L 12.480469 25.921875 Z M 12.480469 24.960938 "/>
<path style=" stroke:none;fill-rule:nonzero;fill:rgb(0%,0%,0%);fill-opacity:1;" d="M 15.359375 26.882812 L 18.242188 26.882812 L 18.242188 24.003906 L 15.359375 24.003906 Z M 16.320312 24.960938 L 17.28125 24.960938 L 17.28125 25.921875 L 16.320312 25.921875 Z M 16.320312 24.960938 "/>
</g>
</svg>
